<svg xmlns="http://www.w3.org/2000/svg" viewBox="0 0 100 100" width="100" height="100">
  <!-- QIAN YU: 两行字字号完全相同 (32pt) · 向左对齐 · 紧凑小字距 · 零行距紧贴 · 偏左下角 -->
  <g fill="currentColor">
    <path d="M 18.12,66.77 Q 14.71,66.77 12.21,65.35 Q 9.71,63.93 8.36,61.31 Q 7.00,58.69 7.00,55.10 L 7.00,55.07 Q 7.00,51.48 8.36,48.87 Q 9.73,46.25 12.22,44.84 Q 14.72,43.42 18.12,43.42 Q 21.55,43.42 24.05,44.84 Q 26.56,46.26 27.91,48.87 Q 29.27,51.48 29.27,55.07 L 29.27,55.10 Q 29.27,58.69 27.91,61.31 Q 26.56,63.92 24.06,65.34 Q 21.57,66.77 18.12,66.77 Z M 18.12,62.02 Q 19.77,62.02 20.95,61.17 Q 22.13,60.32 22.77,58.77 Q 23.42,57.22 23.42,55.10 L 23.42,55.07 Q 23.42,52.94 22.77,51.39 Q 22.12,49.85 20.93,49.01 Q 19.74,48.17 18.12,48.17 Q 16.53,48.17 15.34,49.00 Q 14.15,49.83 13.50,51.38 Q 12.85,52.92 12.85,55.07 L 12.85,55.10 Q 12.85,57.23 13.50,58.78 Q 14.15,60.34 15.33,61.18 Q 16.52,62.02 18.12,62.02 Z M 23.50,68.25 L 16.30,57.96 L 21.49,57.96 L 28.70,68.25 Z M 32.15,66.37 L 32.15,43.82 L 37.89,43.82 L 37.89,66.37 Z M 40.15,66.37 L 47.75,43.82 L 53.03,43.82 L 53.03,48.73 L 51.21,48.73 L 46.19,66.37 Z M 44.60,61.42 L 45.87,57.28 L 56.66,57.28 L 57.93,61.42 Z M 56.34,66.37 L 51.32,48.73 L 51.32,43.82 L 54.78,43.82 L 62.37,66.37 Z M 64.64,66.37 L 64.64,43.82 L 69.50,43.82 L 80.41,59.56 L 76.25,56.81 L 78.61,56.81 L 78.61,43.82 L 84.34,43.82 L 84.34,66.37 L 79.52,66.37 L 68.58,50.49 L 72.73,53.23 L 70.37,53.23 L 70.37,66.37 Z " />
    <path d="M 14.77,91.60 L 14.77,83.86 L 7.00,69.05 L 13.11,69.05 L 17.58,78.42 L 17.70,78.42 L 22.17,69.05 L 28.28,69.05 L 20.51,83.86 L 20.51,91.60 Z M 40.24,92.00 Q 37.32,92.00 35.13,90.96 Q 32.95,89.92 31.75,88.03 Q 30.55,86.14 30.55,83.60 L 30.55,69.05 L 36.28,69.05 L 36.28,83.05 Q 36.28,84.37 36.74,85.30 Q 37.21,86.24 38.09,86.75 Q 38.97,87.25 40.26,87.25 Q 41.54,87.25 42.43,86.75 Q 43.32,86.24 43.77,85.30 Q 44.23,84.37 44.23,83.05 L 44.23,69.05 L 49.96,69.05 L 49.96,83.60 Q 49.96,86.12 48.76,88.02 Q 47.57,89.91 45.39,90.95 Q 43.21,92.00 40.24,92.00 Z " />
  </g>
</svg>